<?xml version="1.0" standalone="no"?>
<!DOCTYPE svg PUBLIC "-//W3C//DTD SVG 20010904//EN"
 "http://www.w3.org/TR/2001/REC-SVG-20010904/DTD/svg10.dtd">
<svg version="1.0" xmlns="http://www.w3.org/2000/svg"
 width="1447.000000pt" height="1447.000000pt" viewBox="0 0 1447.000000 1447.000000"
 preserveAspectRatio="xMidYMid meet">
<metadata>
Created by potrace 1.14, written by Peter Selinger 2001-2017
</metadata>
<g transform="translate(0.000000,1447.000000) scale(0.100000,-0.100000)"
fill="#000000" stroke="none">
<path d="M5058 11395 c-2 -2 -43 -6 -93 -9 -143 -10 -358 -44 -510 -81 -377
-92 -689 -239 -985 -463 -127 -96 -358 -316 -441 -420 -30 -37 -57 -69 -60
-72 -16 -12 -174 -230 -226 -311 l-58 -91 -3 631 -2 631 -670 0 -670 0 0
-4060 0 -4060 670 0 670 0 1 2348 c0 1291 2 2386 4 2434 3 87 13 211 20 258 2
14 7 48 10 75 12 107 33 216 65 345 63 251 151 469 268 670 44 74 100 160 111
170 3 3 17 21 30 40 80 115 251 288 386 391 50 38 95 74 102 79 7 6 15 10 17
10 3 0 29 15 58 34 163 104 409 199 633 244 189 38 274 46 510 47 217 0 287
-6 440 -36 180 -36 385 -116 498 -193 21 -14 40 -26 43 -26 4 0 42 -30 86 -67
193 -160 347 -388 447 -659 33 -92 97 -319 106 -378 3 -21 7 -41 9 -45 5 -7
32 -182 41 -266 3 -27 8 -67 10 -88 6 -44 15 -195 20 -306 2 -42 4 -1202 4
-2578 l1 -2503 670 0 670 0 1 2358 c0 1296 2 2389 4 2427 6 103 15 226 20 260
11 88 16 124 20 146 2 13 6 41 9 61 13 85 50 240 87 359 119 385 304 699 563
954 113 111 121 118 221 191 285 209 640 340 1030 380 98 11 450 11 525 2 119
-15 148 -20 226 -39 134 -31 204 -56 329 -119 265 -132 457 -328 603 -615 56
-110 92 -202 141 -360 14 -42 58 -223 65 -265 3 -19 8 -46 11 -60 7 -34 12
-65 20 -125 3 -27 8 -61 10 -75 10 -72 24 -248 30 -395 2 -60 4 -1229 5 -2597
l0 -2488 670 0 671 0 -4 2658 c-2 1461 -6 2673 -9 2692 -3 19 -9 80 -13 135
-4 55 -9 109 -10 120 -3 19 -9 59 -20 155 -10 82 -26 174 -51 300 -14 69 -27
132 -29 140 -2 8 -8 35 -15 60 -7 25 -13 50 -14 55 -18 80 -91 300 -143 430
-52 129 -160 348 -203 411 -16 25 -30 47 -30 50 0 3 -19 33 -42 67 -216 318
-470 557 -773 728 -80 46 -97 54 -216 107 -101 45 -311 111 -439 138 -41 8
-82 17 -90 19 -8 1 -40 6 -70 10 -30 3 -66 8 -80 10 -115 16 -175 19 -385 19
-211 1 -363 -6 -445 -19 -14 -2 -47 -7 -75 -10 -90 -10 -232 -37 -330 -62 -33
-8 -67 -16 -75 -18 -53 -12 -225 -71 -321 -110 -365 -150 -636 -332 -935 -630
-220 -219 -407 -462 -584 -758 -45 -76 -84 -136 -85 -135 -2 2 -22 53 -45 113
-106 272 -240 513 -409 735 -81 105 -292 319 -386 390 -38 30 -72 56 -75 59
-3 3 -14 11 -25 18 -11 7 -63 39 -115 71 -156 97 -276 155 -446 216 -125 44
-341 97 -454 111 -25 3 -58 8 -75 11 -16 3 -50 7 -75 10 -50 6 -547 14 -552 9z"/>
</g>
</svg>
